<svg id="Layer_1" xmlns="http://www.w3.org/2000/svg" viewBox="0 0 612 612"><path d="M127.29 319.85c-10.73 0-18.61-2.31-24.59-4.08v-20.51h2.04c3.67 10.46 13.04 21.87 22.42 21.87 5.71 0 8.7-3.26 8.7-8.42 0-13.86-34.23-16.98-34.23-37.63 0-13.99 9.92-21.87 23.77-21.87 8.97 0 15.49 2.85 18.88 4.48l3.8-3.13h.82v20.65H147c-5.98-11.55-15.35-19.29-21.74-19.29-3.67 0-6.11 2.45-6.11 6.93 0 13.04 35.87 18.2 35.87 38.85-.02 16.17-14.28 22.15-27.73 22.15M167.23 229.64c0-7.34 5.98-13.18 13.32-13.18 7.61 0 13.18 5.84 13.18 13.18s-5.84 13.31-13.18 13.31c-7.34.01-13.32-5.97-13.32-13.31m-5.16 86.95c5.44 0 6.93-4.35 6.93-12.77v-34.78c0-8.42-1.09-12.5-6.52-11.55l-.27-1.9 8.56-1.49 21.33-4.08v53.8c0 8.42 1.49 12.77 6.93 12.77v1.9h-36.95v-1.9zM320.61 316.59v1.9h-36.95v-1.9c5.43 0 6.93-4.35 6.93-12.77v-36c0-4.21-2.31-6.25-5.7-6.25-3.13 0-7.61 2.04-10.73 4.08v38.18c0 8.42 1.22 12.77 5.57 12.77v1.9h-33.42v-1.9c4.35 0 5.57-4.35 5.57-12.77v-36c0-4.21-2.31-6.25-5.71-6.25-3.12 0-7.47 1.9-10.73 3.8v38.45c0 8.42 1.49 12.77 6.93 12.77v1.9H205.4v-1.9c5.43 0 6.93-4.35 6.93-12.77v-34.78c0-8.42-1.09-12.5-6.52-11.55l-.27-1.9 8.56-1.49 21.33-4.08v10.73c5.71-5.16 14.13-11.54 21.87-11.54 9.37 0 14.94 4.48 16.44 12.36 5.71-5.43 14.67-12.36 22.69-12.36 11.14 0 17.25 6.25 17.25 16.85v37.77c0 8.4 1.49 12.75 6.93 12.75M355.79 262.39v45.51c0 5.84 2.04 8.56 5.03 8.56 9.37 0 13.04-14.4 13.04-33.15 0-12.36-2.44-24.32-9.51-24.32-2.72 0-5.84 1.49-8.56 3.4m0 57.46v13.86c0 8.42 1.49 12.77 6.93 12.77v1.9h-36.95v-1.9c5.44 0 6.93-4.35 6.93-12.77v-64.67c0-8.42-1.09-12.5-6.52-11.55l-.27-1.9 8.56-1.49 21.33-4.08v8.29c5.84-5.43 12.63-9.1 18.34-9.1 17.25 0 23.64 16.03 23.64 32.33 0 18.34-9.78 38.31-35.87 38.31h-6.12zM404.83 316.59c5.44 0 6.93-4.35 6.93-12.77v-69.56c0-8.42-1.09-12.5-6.52-11.54l-.27-1.9 8.56-1.49 21.33-4.08v88.58c0 8.42 1.49 12.77 6.93 12.77v1.9h-36.95v-1.91zM469.9 275.56h19.15c-.13-9.38-1.9-23.23-8.56-23.23-7.06 0-10.45 12.5-10.59 23.23m38.58 16.17l1.77.54c-2.72 13.31-12.23 27.3-31.38 27.3-17.93 0-30.3-15.62-30.3-35.18 0-19.02 12.36-35.05 32.6-35.05 20.38 0 29.21 19.42 29.21 29.61h-40.35c.68 11.96 5.84 22.69 18.2 22.69 10.47 0 17.67-4.88 20.25-9.91"/><g><path d="M158.37 372.31c-.2-.88-.56-1.69-1.1-2.45-.54-.76-1.2-1.42-2.01-1.98-.8-.56-1.73-1.01-2.78-1.33-1.04-.32-2.17-.48-3.36-.48-1.7 0-3.24.28-4.63.83a9.552 9.552 0 0 0-3.54 2.45c-.97 1.08-1.73 2.43-2.25 4.05-.53 1.62-.79 3.5-.79 5.64 0 2.14.26 4.04.79 5.67s1.28 3.01 2.25 4.12a9.468 9.468 0 0 0 3.51 2.52c1.37.57 2.89.86 4.57.86 2.54 0 4.63-.57 6.28-1.7 1.64-1.13 2.66-2.79 3.06-4.97h2.23c-.21 1.39-.65 2.64-1.31 3.74a9.48 9.48 0 0 1-2.5 2.77c-1 .75-2.15 1.32-3.46 1.72-1.3.39-2.72.59-4.24.59-2.07 0-3.94-.36-5.59-1.08-1.65-.72-3.06-1.75-4.22-3.07-1.16-1.33-2.06-2.93-2.68-4.81-.63-1.89-.94-4-.94-6.34 0-2.32.31-4.41.94-6.28.63-1.86 1.52-3.44 2.69-4.76 1.17-1.31 2.58-2.32 4.24-3.03 1.65-.71 3.51-1.06 5.56-1.06 1.41 0 2.76.2 4.04.62 1.28.41 2.43.99 3.44 1.73 1.02.74 1.88 1.63 2.58 2.65.7 1.03 1.18 2.16 1.45 3.39h-2.23zM212.09 364.46v12.6h-18.1v-12.6h-2.14v29.36h2.14V379.2h18.1v14.62h2.17v-29.36zM263.08 382.69l-6.81-16.33-6.46 16.33h13.27zm6.78 11.13h-2.57l-3.6-9.44h-14.45c-.52 1.48-1.08 3.05-1.69 4.71-.61 1.66-1.19 3.23-1.74 4.73h-2.28c.97-2.54 1.92-5.02 2.86-7.45.94-2.43 1.87-4.85 2.8-7.25.93-2.4 1.86-4.82 2.8-7.25.94-2.43 1.89-4.91 2.86-7.43h3.03l11.98 29.38zM301.28 378.43h10.19c1.45 0 2.69-.11 3.73-.32 1.04-.22 1.89-.57 2.56-1.06s1.17-1.13 1.49-1.92c.32-.79.48-1.75.48-2.89 0-2.02-.64-3.46-1.92-4.33s-3.19-1.3-5.73-1.3h-10.8v11.82zm21.42 15.39h-2.36l-2.92-7.8c-.28-.75-.6-1.46-.95-2.12-.35-.66-.75-1.24-1.22-1.73s-1-.88-1.6-1.17c-.6-.28-1.3-.43-2.1-.43h-10.27v13.25h-2.15v-29.36h13.22c1.23 0 2.43.11 3.58.34 1.15.22 2.18.62 3.08 1.19.9.57 1.62 1.36 2.16 2.37s.8 2.3.8 3.87c0 .98-.12 1.9-.36 2.75-.24.85-.61 1.61-1.1 2.28-.49.67-1.12 1.24-1.88 1.72-.76.47-1.65.82-2.67 1.03.55.43 1.01.84 1.37 1.23.36.39.67.81.93 1.26.26.45.49.94.7 1.48.2.54.44 1.15.71 1.85l3.03 7.99zM354.86 364.46H357v29.36h-2.14zM387.86 364.46v2.14h10.16v27.22h2.15V366.6h10.26v-2.14zM460.59 364.46l-10.05 14.5-10.14-14.5h-2.52l11.59 16.75v12.61h2.14v-12.61l11.48-16.75z"/></g></svg>