<?xml version="1.0" encoding="utf-8"?>
<!-- Generator: Adobe Illustrator 23.0.6, SVG Export Plug-In . SVG Version: 6.00 Build 0)  -->
<svg version="1.1" id="Layer_1" xmlns="http://www.w3.org/2000/svg" xmlns:xlink="http://www.w3.org/1999/xlink" x="0px" y="0px"
	 viewBox="0 0 612 338" style="enable-background:new 0 0 612 338;" xml:space="preserve">
<style type="text/css">
	.st0{fill:#263B4E;}
</style>
<g>
	<g>
		<path class="st0" d="M76.6,187c-13.7,0-23.8-3-31.4-5.2v-26.2h2.6c4.7,13.4,16.7,27.9,28.6,27.9c7.3,0,11.1-4.2,11.1-10.8
			c0-17.7-43.7-21.7-43.7-48.1c0-17.9,12.7-27.9,30.4-27.9c11.5,0,19.8,3.6,24.1,5.7l4.9-4h1v26.4h-2.4
			c-7.6-14.8-19.6-24.6-27.8-24.6c-4.7,0-7.8,3.1-7.8,8.9c0,16.7,45.8,23.3,45.8,49.6C112,179.4,93.8,187,76.6,187"/>
		<path class="st0" d="M127.7,71.8c0-9.4,7.6-16.8,17-16.8c9.7,0,16.8,7.5,16.8,16.8s-7.5,17-16.8,17
			C135.3,88.8,127.7,81.1,127.7,71.8 M121.1,182.9c7,0,8.9-5.6,8.9-16.3v-44.4c0-10.8-1.4-16-8.3-14.8l-0.3-2.4l10.9-1.9l27.3-5.2
			v68.7c0,10.8,1.9,16.3,8.9,16.3v2.4h-47.2V182.9z"/>
		<path class="st0" d="M323.7,182.9v2.4h-47.2v-2.4c6.9,0,8.9-5.6,8.9-16.3v-46c0-5.4-3-8-7.3-8c-4,0-9.7,2.6-13.7,5.2v0.5v48.3
			c0,10.8,1.6,16.3,7.1,16.3v2.4h-42.7v-2.4c5.6,0,7.1-5.6,7.1-16.3v-46c0-5.4-3-8-7.3-8c-4,0-9.5,2.4-13.7,4.9v49.1
			c0,10.8,1.9,16.3,8.9,16.3v2.4h-47.2v-2.4c6.9,0,8.9-5.6,8.9-16.3v-44.4c0-10.8-1.4-16-8.3-14.8l-0.3-2.4l10.9-1.9l27.3-5.2v13.7
			c7.3-6.6,18.1-14.7,27.9-14.7c12,0,19.1,5.7,21,15.8c7.3-6.9,18.7-15.8,29-15.8c14.2,0,22,8,22,21.5v48.3
			C314.8,177.3,316.7,182.9,323.7,182.9"/>
		<path class="st0" d="M368.6,113.6v58.2c0,7.5,2.6,10.9,6.4,10.9c12,0,16.7-18.4,16.7-42.4c0-15.8-3.1-31.1-12.2-31.1
			C376.1,109.3,372.1,111.2,368.6,113.6 M368.6,187v17.7c0,10.8,1.9,16.3,8.9,16.3v2.4h-47.2v-2.4c7,0,8.9-5.6,8.9-16.3v-82.6
			c0-10.8-1.4-16-8.3-14.8l-0.3-2.4l10.9-1.9l27.3-5.2v10.6c7.5-6.9,16.1-11.6,23.4-11.6c22,0,30.2,20.5,30.2,41.3
			c0,23.4-12.5,49-45.8,49L368.6,187L368.6,187z"/>
		<path class="st0" d="M431.3,182.9c7,0,8.9-5.6,8.9-16.3V77.7c0-10.8-1.4-16-8.3-14.7l-0.3-2.4l10.9-1.9l27.3-5.2v113.2
			c0,10.8,1.9,16.3,8.9,16.3v2.4h-47.2L431.3,182.9L431.3,182.9z"/>
		<path class="st0" d="M514.4,130.4h24.5c-0.2-12-2.4-29.7-10.9-29.7C518.9,100.8,514.6,116.7,514.4,130.4 M563.7,151.1l2.3,0.7
			c-3.5,17-15.6,34.9-40.1,34.9c-22.9,0-38.7-20-38.7-45c0-24.3,15.8-44.8,41.7-44.8c26,0,37.3,24.8,37.3,37.8h-51.6
			c0.9,15.3,7.5,29,23.3,29C551.2,163.8,560.4,157.5,563.7,151.1"/>
	</g>
	<g>
		<path class="st0" d="M116.3,254.1c-0.3-1.1-0.7-2.2-1.4-3.1c-0.7-1-1.5-1.8-2.6-2.5c-1-0.7-2.2-1.3-3.6-1.7
			c-1.3-0.4-2.8-0.6-4.3-0.6c-2.2,0-4.1,0.4-5.9,1.1c-1.8,0.7-3.3,1.8-4.5,3.1c-1.2,1.4-2.2,3.1-2.9,5.2c-0.7,2.1-1,4.5-1,7.2
			c0,2.7,0.3,5.2,1,7.2c0.7,2.1,1.6,3.8,2.9,5.3c1.2,1.4,2.7,2.5,4.5,3.2c1.8,0.7,3.7,1.1,5.8,1.1c3.2,0,5.9-0.7,8-2.2
			c2.1-1.4,3.4-3.6,3.9-6.4h2.8c-0.3,1.8-0.8,3.4-1.7,4.8c-0.8,1.4-1.9,2.6-3.2,3.5c-1.3,1-2.7,1.7-4.4,2.2
			c-1.7,0.5-3.5,0.8-5.4,0.8c-2.6,0-5-0.5-7.1-1.4c-2.1-0.9-3.9-2.2-5.4-3.9c-1.5-1.7-2.6-3.7-3.4-6.1c-0.8-2.4-1.2-5.1-1.2-8.1
			c0-3,0.4-5.6,1.2-8c0.8-2.4,1.9-4.4,3.4-6.1c1.5-1.7,3.3-3,5.4-3.9c2.1-0.9,4.5-1.4,7.1-1.4c1.8,0,3.5,0.3,5.2,0.8
			c1.6,0.5,3.1,1.3,4.4,2.2c1.3,0.9,2.4,2.1,3.3,3.4c0.9,1.3,1.5,2.8,1.9,4.3L116.3,254.1L116.3,254.1z"/>
		<polygon class="st0" points="185,244 185,260.1 161.9,260.1 161.9,244 159.1,244 159.1,281.5 161.9,281.5 161.9,262.9 185,262.9 
			185,281.5 187.8,281.5 187.8,244 		"/>
		<path class="st0" d="M250.1,267.3l-8.7-20.9l-8.3,20.9H250.1z M258.8,281.5h-3.3l-4.6-12.1h-18.5c-0.7,1.9-1.4,3.9-2.2,6
			c-0.8,2.1-1.5,4.1-2.2,6h-2.9c1.2-3.2,2.5-6.4,3.7-9.5c1.2-3.1,2.4-6.2,3.6-9.3c1.2-3.1,2.4-6.2,3.6-9.3c1.2-3.1,2.4-6.3,3.7-9.5
			h3.9L258.8,281.5z"/>
		<path class="st0" d="M299,261.9h13c1.9,0,3.4-0.1,4.8-0.4c1.3-0.3,2.4-0.7,3.3-1.4c0.9-0.6,1.5-1.4,1.9-2.5c0.4-1,0.6-2.2,0.6-3.7
			c0-2.6-0.8-4.4-2.5-5.5c-1.6-1.1-4.1-1.7-7.3-1.7H299V261.9z M326.3,281.5h-3l-3.7-10c-0.4-1-0.8-1.9-1.2-2.7s-1-1.6-1.6-2.2
			c-0.6-0.6-1.3-1.1-2-1.5c-0.8-0.4-1.7-0.5-2.7-0.5H299v16.9h-2.7V244h16.9c1.6,0,3.1,0.1,4.6,0.4c1.5,0.3,2.8,0.8,3.9,1.5
			s2.1,1.7,2.8,3s1,2.9,1,4.9c0,1.3-0.2,2.4-0.5,3.5s-0.8,2.1-1.4,2.9c-0.6,0.9-1.4,1.6-2.4,2.2c-1,0.6-2.1,1-3.4,1.3
			c0.7,0.5,1.3,1.1,1.8,1.6c0.5,0.5,0.9,1,1.2,1.6c0.3,0.6,0.6,1.2,0.9,1.9c0.3,0.7,0.6,1.5,0.9,2.4L326.3,281.5z"/>
		<rect x="367.4" y="244" class="st0" width="2.7" height="37.5"/>
		<polygon class="st0" points="409.6,244 409.6,246.8 422.6,246.8 422.6,281.5 425.3,281.5 425.3,246.8 438.4,246.8 438.4,244 		"/>
		<polygon class="st0" points="502.5,244 489.7,262.6 476.7,244 473.5,244 488.3,265.4 488.3,281.5 491,281.5 491,265.4 505.7,244 
					"/>
	</g>
</g>
</svg>
