<?xml version="1.0" encoding="utf-8"?>
<!-- Generator: Adobe Illustrator 23.0.6, SVG Export Plug-In . SVG Version: 6.00 Build 0)  -->
<svg version="1.1" id="Layer_1" xmlns="http://www.w3.org/2000/svg" xmlns:xlink="http://www.w3.org/1999/xlink" x="0px" y="0px"
	 viewBox="0 0 416 184" style="enable-background:new 0 0 416 184;" xml:space="preserve">
<path d="M28.3,105.9c-10.7,0-18.6-2.3-24.6-4.1V81.3h2c3.7,10.5,13,21.9,22.4,21.9c5.7,0,8.7-3.3,8.7-8.4c0-13.9-34.2-17-34.2-37.6
	c0-14,9.9-21.9,23.8-21.9c9,0,15.5,2.9,18.9,4.5l3.8-3.1h0.8v20.7H48c-6-11.5-15.4-19.3-21.7-19.3c-3.7,0-6.1,2.4-6.1,6.9
	C20.2,57.9,56,63,56,83.7C56,99.9,41.7,105.8,28.3,105.9 M68.2,15.6c0-7.3,6-13.2,13.3-13.2c7.6,0,13.2,5.8,13.2,13.2
	s-5.8,13.3-13.2,13.3C74.2,29,68.2,23,68.2,15.6 M63.1,102.6c5.4,0,6.9-4.4,6.9-12.8V55c0-8.4-1.1-12.5-6.5-11.5l-0.3-1.9l8.6-1.5
	L93.1,36v53.8c0,8.4,1.5,12.8,6.9,12.8v1.9H63.1L63.1,102.6L63.1,102.6z M221.6,102.6v1.9h-37v-1.9c5.4,0,6.9-4.4,6.9-12.8v-36
	c0-4.2-2.3-6.2-5.7-6.2c-3.1,0-7.6,2-10.7,4.1v38.2c0,8.4,1.2,12.8,5.6,12.8v1.9h-33.4v-1.9c4.4,0,5.6-4.4,5.6-12.8v-36
	c0-4.2-2.3-6.2-5.7-6.2c-3.1,0-7.5,1.9-10.7,3.8v38.5c0,8.4,1.5,12.8,6.9,12.8v1.9h-37v-1.9c5.4,0,6.9-4.4,6.9-12.8V55
	c0-8.4-1.1-12.5-6.5-11.5l-0.3-1.9l8.6-1.5l21.3-4.1v10.7c5.7-5.2,14.1-11.5,21.9-11.5c9.4,0,14.9,4.5,16.4,12.4
	c5.7-5.4,14.7-12.4,22.7-12.4c11.1,0,17.2,6.2,17.2,16.8v37.8C214.7,98.2,216.2,102.6,221.6,102.6 M256.8,48.4v45.5
	c0,5.8,2,8.6,5,8.6c9.4,0,13-14.4,13-33.1c0-12.4-2.4-24.3-9.5-24.3C262.6,45,259.5,46.5,256.8,48.4 M256.8,105.9v13.9
	c0,8.4,1.5,12.8,6.9,12.8v1.9h-37v-1.9c5.4,0,6.9-4.4,6.9-12.8V55c0-8.4-1.1-12.5-6.5-11.5l-0.3-1.9l8.6-1.5l21.3-4.1v8.3
	c5.8-5.4,12.6-9.1,18.3-9.1c17.2,0,23.6,16,23.6,32.3c0,18.3-9.8,38.3-35.9,38.3L256.8,105.9L256.8,105.9z M305.8,102.6
	c5.4,0,6.9-4.4,6.9-12.8V20.3c0-8.4-1.1-12.5-6.5-11.5L306,6.8l8.6-1.5l21.3-4.1v88.6c0,8.4,1.5,12.8,6.9,12.8v1.9h-37L305.8,102.6
	L305.8,102.6z M370.9,61.6H390c-0.1-9.4-1.9-23.2-8.6-23.2C374.4,38.3,371,50.8,370.9,61.6 M409.5,77.7l1.8,0.5
	c-2.7,13.3-12.2,27.3-31.4,27.3c-17.9,0-30.3-15.6-30.3-35.2c0-19,12.4-35.1,32.6-35.1c20.4,0,29.2,19.4,29.2,29.6H371
	c0.7,12,5.8,22.7,18.2,22.7C399.7,87.6,406.9,82.8,409.5,77.7"/>
<g>
	<path d="M59.4,158.3c-0.2-0.9-0.6-1.7-1.1-2.5c-0.5-0.8-1.2-1.4-2-2c-0.8-0.6-1.7-1-2.8-1.3c-1-0.3-2.2-0.5-3.4-0.5
		c-1.7,0-3.2,0.3-4.6,0.8c-1.4,0.5-2.6,1.4-3.5,2.5c-1,1.1-1.7,2.4-2.2,4c-0.5,1.6-0.8,3.5-0.8,5.6s0.3,4,0.8,5.7s1.3,3,2.2,4.1
		c1,1.1,2.2,2,3.5,2.5c1.4,0.6,2.9,0.9,4.6,0.9c2.5,0,4.6-0.6,6.3-1.7c1.6-1.1,2.7-2.8,3.1-5h2.2c-0.2,1.4-0.6,2.6-1.3,3.7
		c-0.6,1.1-1.5,2-2.5,2.8c-1,0.8-2.1,1.3-3.5,1.7c-1.3,0.4-2.7,0.6-4.2,0.6c-2.1,0-3.9-0.4-5.6-1.1s-3.1-1.8-4.2-3.1
		c-1.2-1.3-2.1-2.9-2.7-4.8c-0.6-1.9-0.9-4-0.9-6.3c0-2.3,0.3-4.4,0.9-6.3c0.6-1.9,1.5-3.4,2.7-4.8c1.2-1.3,2.6-2.3,4.2-3
		c1.6-0.7,3.5-1.1,5.6-1.1c1.4,0,2.8,0.2,4,0.6c1.3,0.4,2.4,1,3.4,1.7c1,0.7,1.9,1.6,2.6,2.6c0.7,1,1.2,2.2,1.4,3.4L59.4,158.3
		L59.4,158.3z M113.1,150.5v12.6H95v-12.6h-2.1v29.4H95v-14.6h18.1v14.6h2.2v-29.4L113.1,150.5z M164.1,168.7l-6.8-16.3l-6.5,16.3
		H164.1z M170.9,179.8h-2.6l-3.6-9.4h-14.4c-0.5,1.5-1.1,3-1.7,4.7s-1.2,3.2-1.7,4.7h-2.3c1-2.5,1.9-5,2.9-7.5
		c0.9-2.4,1.9-4.9,2.8-7.2c0.9-2.4,1.9-4.8,2.8-7.2s1.9-4.9,2.9-7.4h3L170.9,179.8z M202.3,164.4h10.2c1.5,0,2.7-0.1,3.7-0.3
		c1-0.2,1.9-0.6,2.6-1.1s1.2-1.1,1.5-1.9c0.3-0.8,0.5-1.8,0.5-2.9c0-2-0.6-3.5-1.9-4.3s-3.2-1.3-5.7-1.3h-10.8V164.4z M223.7,179.8
		h-2.4l-2.9-7.8c-0.3-0.8-0.6-1.5-1-2.1s-0.8-1.2-1.2-1.7s-1-0.9-1.6-1.2c-0.6-0.3-1.3-0.4-2.1-0.4h-10.3v13.2h-2.1v-29.4h13.2
		c1.2,0,2.4,0.1,3.6,0.3c1.1,0.2,2.2,0.6,3.1,1.2s1.6,1.4,2.2,2.4s0.8,2.3,0.8,3.9c0,1-0.1,1.9-0.4,2.8s-0.6,1.6-1.1,2.3
		c-0.5,0.7-1.1,1.2-1.9,1.7c-0.8,0.5-1.6,0.8-2.7,1c0.5,0.4,1,0.8,1.4,1.2s0.7,0.8,0.9,1.3c0.3,0.5,0.5,0.9,0.7,1.5
		c0.2,0.5,0.4,1.1,0.7,1.9L223.7,179.8L223.7,179.8z M255.9,150.5h2.1v29.4h-2.1V150.5z M288.9,150.5v2.1H299v27.2h2.1v-27.2h10.3
		v-2.1H288.9z M361.6,150.5l-10,14.5l-10.1-14.5h-2.5l11.6,16.8v12.6h2.1v-12.6l11.5-16.8H361.6z"/>
</g>
</svg>
