<svg id="Layer_1" data-name="Layer 1" xmlns="http://www.w3.org/2000/svg" viewBox="0 0 181.4 102.24"><defs></defs><title>SC_map_outline</title><path class="cls-1" d="M66.93,158.63a.48.48,0,0,1-.38-.18,27.73,27.73,0,0,1-6-16c-.06-1.24,0-2.53,0-3.79.06-4.23.12-8.6-2.57-11.59a17.15,17.15,0,0,0-3.13-2.51,12,12,0,0,1-4.25-4c-1.84-3.47-1.25-6.91-.68-10.24a20.78,20.78,0,0,0,.46-5.56c-8.54-1.44-19.62-7.06-21.69-14.4-.86-3,.31-6.59,1.44-10,1.44-4.36,2.81-8.48.35-11.55-.36-.45-1.81-1.88-5.27-1.13-.58.12-1.18.29-1.76.45a12.84,12.84,0,0,1-4.45.7c-.95-.06-2.13-.53-2.32-1.6-.29-1.68,4.86-6,5.69-6.48,2.22-1.36,5.46-1.5,8.07-1.62l1,0a84.38,84.38,0,0,1,9.15.18,82.69,82.69,0,0,0,9,.18.48.48,0,0,1,0,1,84.61,84.61,0,0,1-9.16-.18,82.51,82.51,0,0,0-9-.19l-1,0c-2.49.11-5.6.24-7.61,1.48-1.47.9-5.32,4.68-5.24,5.49.08.5.78.77,1.44.82a12,12,0,0,0,4.12-.67c.6-.16,1.21-.33,1.82-.47,1.29-.27,4.49-.69,6.22,1.48,2.78,3.47,1.27,8-.19,12.44-1.09,3.3-2.21,6.7-1.43,9.46,1,3.7,4.67,7.28,10.2,10.1a39.45,39.45,0,0,0,10.41,3.54c-.49-2.08-1.86-4-5-5.82-.22-.13-.45-.25-.68-.37A11,11,0,0,1,42.18,96a3.61,3.61,0,0,1-1.1-3.66c.65-1.78,2.83-2.29,4.71-2,.59.09,1.15.2,1.65.29,2.55.49,3.71.72,4.71-1.89,1.66-4.34,2.75-4.92,4.93-6.08a29.83,29.83,0,0,0,3.46-2.1,9.79,9.79,0,0,0,2.12-2.34,8.53,8.53,0,0,1,3-2.92,8.56,8.56,0,0,1,2.65-.68,8.33,8.33,0,0,0,2.11-.47,2.13,2.13,0,0,0,1.52-1.84c.22-2.3-2.49-5.61-4-6.57-.63-.41-2.28-1.29-3.74-.65-.13.07-.65.52-1.11.92-2.7,2.31-5.24,4.33-6.66,3.49-.81-.48-1-1.67-.55-3.74.36-1.73,1.85-3.21,4.08-4.07,4.73-1.82,8.88.26,12.9,2.28l.4.21A48.19,48.19,0,0,0,84.34,68c1.15.26,2.36.45,3.53.64A27.18,27.18,0,0,1,96,70.8a7,7,0,0,1,3.43,4A4,4,0,0,1,99,78.07a9.42,9.42,0,0,1-2.62,2.52c-1.63,1.22-2.61,2-2.19,3.25a3.28,3.28,0,0,0,.52.89,4.45,4.45,0,0,1,.65,1.15c.58,1.73-.81,3.25-1.93,4.47l-.09.09a16.44,16.44,0,0,0-4.27,11.74c.17,3.76,2.5,7.84,6,7.88a9.44,9.44,0,0,0,3.08-.67,9.83,9.83,0,0,1,3.69-.69c2.12.16,5.79,1.72,6.62,10.41L109.82,133c.24,2.55.73,5.06,2.6,6.14s4,.25,5.3-.87a15.24,15.24,0,0,0,3.43-5l4.47-8.79a15.78,15.78,0,0,0,2-5.42c0-.54,0-1.09,0-1.66a11.84,11.84,0,0,1,.14-2.44c.31-1.61,1.59-3.07,2.84-4.48s2.64-3,2.45-4.38a3.74,3.74,0,0,0-2-2.41,17.7,17.7,0,0,0-1.81-1,12.31,12.31,0,0,1-2.88-1.81A12.09,12.09,0,0,1,123.64,96c-.26-.71-.54-1.45-.85-2.13-1.72-3.74-5.08-6.48-8.35-8.71-.66,0-1.33.1-2,.17a26,26,0,0,1-2.8.2h-.06a7.29,7.29,0,0,1-5.27-2,1,1,0,0,1-.3-.5.92.92,0,0,1,.2-.72c1.6-2.22,4.28-2.14,8,.25.8.51,1.64,1,2.49,1.63h.65A12.56,12.56,0,0,1,126,90.49a26.15,26.15,0,0,1,1.23,2.63c.89,2.11,1.74,4.1,3.56,5.1,1.64.89,3.75.7,5.44.55,1.16-.11,2.54-.35,2.93-1.32a1.39,1.39,0,0,0,0-1.11A3.76,3.76,0,0,0,137,94.58a11.72,11.72,0,0,0-1.14-.36,6.48,6.48,0,0,1-3.32-1.74.43.43,0,0,1-.11-.32,2.33,2.33,0,0,1,1.31-2.06,4.55,4.55,0,0,1,4.31.19,13.15,13.15,0,0,1,2.16,1.83,9.28,9.28,0,0,0,2.61,2,9.38,9.38,0,0,0,1.75.52,6.46,6.46,0,0,1,2.94,1.22c1.38,1.19,1.52,3,1.67,4.83s.26,3.23,1.33,4.18a2.4,2.4,0,0,0,2,.81c1.31-.3,2.31-2.61,3.2-4.66s1.66-3.83,2.84-4.41a6,6,0,0,1,7,1.36c1.38,1.55,1.78,3.61,2.17,5.6.11.56.22,1.14.35,1.69a17.52,17.52,0,0,0,3.83,7.22L172,112c-.19-3.14-.19-3.14-.19-3.16v0a9.06,9.06,0,0,1,1.2-3.39c.87-1.71,1.62-3.19.48-4.84A5.92,5.92,0,0,0,173,100a4.38,4.38,0,0,1-.94-1.52,2.48,2.48,0,0,1,.31-2.14,6,6,0,0,1,4-2.26l.46-.07c1.85-.25,4-.54,4.62-2.06.78-1.78-.42-3.06-2.48-5-1.73-1.58-3.68-3.38-2.77-5.77.14-.36.48-.31.77-.27l.65.09c.75.12,2.33.35,2.58.35a4.71,4.71,0,0,0,2.9-1.59,5.12,5.12,0,0,0,.1-6.3,11.79,11.79,0,0,0-2.39-2c-1.43-1-2.91-2-3.34-3.81a.47.47,0,0,1,.12-.45,7.48,7.48,0,0,1,10.16-.17,13.38,13.38,0,0,1,1.71,2.14A15.7,15.7,0,0,0,190.9,71a4.28,4.28,0,0,0,2.38,1.34,3.21,3.21,0,0,0,1.1,0,2.93,2.93,0,0,0-.21-.39,3.47,3.47,0,0,1-.21-.37c-1-2.08-1.28-4.64.74-5.6a4.75,4.75,0,0,1,1-.3,2.37,2.37,0,0,0,1-.36,1.08,1.08,0,0,0,.4-.84,2,2,0,0,0-.64-1.46,5.56,5.56,0,0,0-3-1l-20.08-2.55a15.19,15.19,0,0,0-4.85-.11,16.09,16.09,0,0,0-1.67.46,13.06,13.06,0,0,1-2.11.55c-2.38.35-4.66-.51-6.86-1.34l-1.4-.52c-7.67-2.7-13.84-.24-20.37,2.35-4.47,1.78-9.09,3.62-14.36,3.8h0c-.11,0-10.93-.47-14.16,1.08a.47.47,0,0,1-.64-.22.49.49,0,0,1,.22-.64c3.41-1.64,13.93-1.2,14.6-1.17,5.09-.18,9.63-2,14-3.73,6.7-2.67,13-5.19,21-2.37l1.42.52c2.09.79,4.25,1.61,6.38,1.29a12.43,12.43,0,0,0,2-.51,16.43,16.43,0,0,1,1.77-.49,15.87,15.87,0,0,1,5.15.1l20.08,2.55a6.36,6.36,0,0,1,3.52,1.21,2.9,2.9,0,0,1,1,2.21,2,2,0,0,1-.77,1.57,3.42,3.42,0,0,1-1.37.53,4.19,4.19,0,0,0-.8.24c-1.74.82-.66,3.52-.28,4.33a2.7,2.7,0,0,0,.15.27c.23.36.57.92.23,1.43s-1.45.5-2.06.42a5.26,5.26,0,0,1-2.94-1.63,14.73,14.73,0,0,1-1.47-1.91,13.74,13.74,0,0,0-1.59-2,6.51,6.51,0,0,0-8.62,0c.43,1.28,1.63,2.12,2.89,3A12,12,0,0,1,184,72.92a6.06,6.06,0,0,1-.11,7.53,5.72,5.72,0,0,1-3.53,1.91,18.68,18.68,0,0,1-2.83-.35l-.48-.07c-.37,1.62,1.09,3,2.63,4.37,1.79,1.65,3.82,3.51,2.7,6-.88,2-3.37,2.36-5.36,2.63l-.46.06a5.07,5.07,0,0,0-3.37,1.84,1.57,1.57,0,0,0-.2,1.34,3.77,3.77,0,0,0,.77,1.19c.17.21.35.42.51.66,1.46,2.12.46,4.08-.42,5.82a8.3,8.3,0,0,0-1.09,3L173,112a.37.37,0,0,1,0,.11l-.21,1.28c2.11,2.32,4.39,4.54,6.81,5.61a2,2,0,0,0,.66.2c.53,0,1-.44,1.62-1.45.37-.64,1.13-2,2.43-2a.48.48,0,0,1,.33.12,4.46,4.46,0,0,1,1.15,2.55,10.22,10.22,0,0,0,.27,1.09,8.72,8.72,0,0,0,.71,1.44,10.38,10.38,0,0,1,.55,1.05,19.38,19.38,0,0,1,1.23,6.81c.14,2.43-1.77,4.38-3.31,6l-.71.73-2,2.16-.78.9a12.94,12.94,0,0,1-3.2,3,3.4,3.4,0,0,1-3.14.23.49.49,0,0,1-.26-.43,7.62,7.62,0,0,1,.26-1.89c.06-.28.13-.57.18-.89a4.46,4.46,0,0,0-3.08-5.23,7.49,7.49,0,0,0-5.55.34c-.49.21-1,.48-1.46.74a19.69,19.69,0,0,1-1.78.89,5,5,0,0,1-3.9.15.33.33,0,0,1-.15-.11c-1.11-1.21-.89-2.95-.49-4.65l.94-4c.36-1.49.77-2.9,1.95-3.76a6.07,6.07,0,0,1,2.32-.87l.67-.16a9.3,9.3,0,0,0,6.45-6.86l.23-1.38-.07-.07a18.89,18.89,0,0,1-4.49-8.14c-.14-.57-.25-1.16-.36-1.73-.38-2-.74-3.79-1.95-5.15A5,5,0,0,0,159,97.47c-.87.43-1.65,2.22-2.39,3.94-1,2.36-2.09,4.81-3.87,5.21a3.27,3.27,0,0,1-2.85-1c-1.36-1.2-1.51-3-1.65-4.82s-.27-3.24-1.35-4.18a5.68,5.68,0,0,0-2.52-1,10.28,10.28,0,0,1-1.92-.57,10,10,0,0,1-2.89-2.21,13.08,13.08,0,0,0-2-1.7,3.67,3.67,0,0,0-3.36-.16A1.42,1.42,0,0,0,133.4,92a6.1,6.1,0,0,0,2.73,1.3c.4.12.81.24,1.2.38A4.68,4.68,0,0,1,140,96a2.32,2.32,0,0,1,.06,1.86c-.59,1.45-2.3,1.78-3.73,1.91-1.83.17-4.1.37-6-.66-2.12-1.16-3.06-3.4-4-5.56A26.93,26.93,0,0,0,125.14,91a11.63,11.63,0,0,0-9-5.81c3,2.15,5.91,4.79,7.53,8.29.33.71.61,1.47.88,2.2a11.16,11.16,0,0,0,2.51,4.57,11.5,11.5,0,0,0,2.66,1.66,18.6,18.6,0,0,1,1.9,1A4.59,4.59,0,0,1,134,106c.24,1.81-1.25,3.5-2.69,5.14-1.15,1.32-2.35,2.68-2.61,4a11.12,11.12,0,0,0-.13,2.25,17.36,17.36,0,0,1,0,1.76,16.5,16.5,0,0,1-2.06,5.76l-4.46,8.8a16.15,16.15,0,0,1-3.68,5.29c-1.59,1.33-4.26,2.19-6.39,1s-2.8-4.07-3.07-6.88l-1.33-13.91c-.27-2.76-1.35-9.22-5.74-9.55a8.87,8.87,0,0,0-3.32.65,10.58,10.58,0,0,1-3.4.71,6.21,6.21,0,0,1-5-2.93,11.38,11.38,0,0,1-1.92-5.86A17.39,17.39,0,0,1,92.68,89.8l.08-.1c1-1.08,2.13-2.32,1.73-3.52a3.43,3.43,0,0,0-.52-.89,4.39,4.39,0,0,1-.65-1.14c-.66-1.94,1-3.15,2.53-4.32a8.84,8.84,0,0,0,2.37-2.25,3.11,3.11,0,0,0,.25-2.5,6,6,0,0,0-3-3.43,26.54,26.54,0,0,0-7.8-2.08c-1.18-.19-2.41-.38-3.59-.65A48.44,48.44,0,0,1,72.81,65l-.41-.2c-4-2-7.79-3.92-12.13-2.25-.91.35-3.07,1.38-3.48,3.37-.46,2.2,0,2.64.09,2.72.95.57,4.29-2.31,5.55-3.39a8.5,8.5,0,0,1,1.36-1.06,4.93,4.93,0,0,1,4.64.72c1.64,1,4.69,4.64,4.43,7.46A3.1,3.1,0,0,1,70.74,75a9.66,9.66,0,0,1-2.34.53,7.72,7.72,0,0,0-2.36.59,7.69,7.69,0,0,0-2.61,2.62,10.74,10.74,0,0,1-2.34,2.56,29.39,29.39,0,0,1-3.56,2.17c-2.09,1.11-3,1.57-4.49,5.57-1.28,3.36-3.17,3-5.79,2.49-.5-.1-1-.2-1.61-.29-1.44-.22-3.2.12-3.66,1.39a2.64,2.64,0,0,0,.87,2.64A9.3,9.3,0,0,0,45,96.71l.69.38c3.6,2.07,5,4.4,5.51,6.82a20.87,20.87,0,0,0,3,.24c.83,0,1.69,0,2.52-.08a20.48,20.48,0,0,1,5.84.26c3.34.78,6,3.06,8.59,5.27,2.76,2.35,5.36,4.58,8.69,5.13l.82.11a6.75,6.75,0,0,1,2.61.69c2.12,1.2,2.45,4.16,1.54,6.21A12.07,12.07,0,0,1,81,126.1a4.51,4.51,0,0,1,1.17,4.62,11.43,11.43,0,0,1-3,4.38l-8.81,9.35c-1.39,1.48-2.56,2.84-2.76,4.51a11.36,11.36,0,0,0,.44,3.71c.5,2.19,1,4.47-.84,5.87A.47.47,0,0,1,66.93,158.63ZM51.32,104.9a22,22,0,0,1-.48,5.58c-.55,3.17-1.11,6.45.58,9.63a11.2,11.2,0,0,0,3.94,3.68,18,18,0,0,1,3.32,2.66c2.93,3.27,2.87,7.83,2.81,12.24,0,1.25,0,2.53,0,3.74a26.88,26.88,0,0,0,5.47,15c.94-1.06.57-2.71.14-4.58a12,12,0,0,1-.46-4c.26-2.11,1.85-3.8,3-5l8.81-9.36a10.68,10.68,0,0,0,2.74-4c.42-1.39,0-3.23-1.28-3.88a.49.49,0,0,1-.27-.38.49.49,0,0,1,.18-.43c1.54-1.19,3.28-2.55,4.11-4.41.74-1.68.46-4.09-1.14-5a6,6,0,0,0-2.26-.57l-.86-.12c-3.59-.59-6.41-3-9.15-5.35-2.49-2.13-5.08-4.34-8.19-5.06A19.8,19.8,0,0,0,56.8,105c-.84,0-1.71.08-2.57.08A21.55,21.55,0,0,1,51.32,104.9Zm124.76,36.16a2.71,2.71,0,0,0,2-.31A12.21,12.21,0,0,0,181,138l.81-.92,2-2.17.72-.75c1.48-1.51,3.16-3.22,3-5.22a18.9,18.9,0,0,0-1.15-6.47c-.15-.33-.33-.65-.52-1a9.1,9.1,0,0,1-.77-1.6,10.07,10.07,0,0,1-.31-1.2,4.11,4.11,0,0,0-.71-1.89c-.58.12-1.05.81-1.43,1.48-.49.84-1.28,2-2.49,1.92a2.74,2.74,0,0,1-1-.27,21.83,21.83,0,0,1-6.63-5.3l-.12.66v0a10.21,10.21,0,0,1-7.14,7.56l-.7.17a5.25,5.25,0,0,0-2,.71A5.33,5.33,0,0,0,161,127l-.94,4c-.33,1.4-.54,2.82.2,3.71a4.22,4.22,0,0,0,3.05-.21,17.68,17.68,0,0,0,1.69-.84c.49-.27,1-.55,1.52-.78a8.51,8.51,0,0,1,6.26-.36,5.42,5.42,0,0,1,3.71,6.28c-.06.35-.13.66-.2,1A8.09,8.09,0,0,0,176.08,141.06ZM105,82.82a6.32,6.32,0,0,0,4.59,1.72,25.24,25.24,0,0,0,2.75-.2l.79-.08-1.45-.94C108.43,81.21,106.3,81.05,105,82.82Z" transform="translate(-16.65 -56.39)"/></svg>