<svg id="Layer_1" data-name="Layer 1" xmlns="http://www.w3.org/2000/svg" viewBox="0 0 145.32 124.45"><defs><style>.cls-1{fill:#f3d3ce;}</style></defs><title>SC_icon_range_safety</title><g id="home"><path class="cls-1" d="M163.77,165.3H119.44a2.1,2.1,0,0,1-2.09-2.09V130.66H101.16v32.55a2.1,2.1,0,0,1-2.09,2.09H55.76a2.1,2.1,0,0,1-2.1-2.09v-54a2.1,2.1,0,0,1,4.2,0v51.91H97V128.56a2.09,2.09,0,0,1,2.1-2.09h20.37a2.09,2.09,0,0,1,2.1,2.09v32.55h40.13V109.2a2.1,2.1,0,1,1,4.2,0v54A2.1,2.1,0,0,1,163.77,165.3Z" transform="translate(-36.34 -40.86)"/><path class="cls-1" d="M38.44,105.68A2.09,2.09,0,0,1,37.08,102l71.33-60.63a2.09,2.09,0,0,1,2.73,0L180.94,102a2.1,2.1,0,0,1-2.75,3.17L109.75,45.72l-70,59.46A2,2,0,0,1,38.44,105.68Z" transform="translate(-36.34 -40.86)"/><path class="cls-1" d="M163.26,76.88a2.1,2.1,0,0,1-2.09-2.1V59.09H147.06a2.1,2.1,0,1,1,0-4.19h16.2a2.09,2.09,0,0,1,2.1,2.09V74.78A2.1,2.1,0,0,1,163.26,76.88Z" transform="translate(-36.34 -40.86)"/></g></svg>