<svg id="Layer_1" data-name="Layer 1" xmlns="http://www.w3.org/2000/svg" viewBox="0 0 144.86 144.25"><defs><style>.cls-1{fill:#c6e0c5;}</style></defs><title>SC_icon_range_capital</title><g id="capital"><path class="cls-1" d="M112.69,33.49h0a2.73,2.73,0,0,0,2.48,2.73,67.17,67.17,0,0,1,1.26,133.64,2.63,2.63,0,0,0-2.34,2.62h0a2.62,2.62,0,0,0,2.9,2.6A72.42,72.42,0,0,0,115.46,31,2.54,2.54,0,0,0,112.69,33.49Z" transform="translate(-36.57 -30.95)"/><path class="cls-1" d="M41.82,103.11a67.25,67.25,0,0,1,59.36-66.7,2.78,2.78,0,0,0,2.45-2.75h0a2.52,2.52,0,0,0-2.8-2.5,72.42,72.42,0,0,0,1.11,144,2.83,2.83,0,0,0,3.09-2.81h0a2.39,2.39,0,0,0-2.16-2.38A67.27,67.27,0,0,1,41.82,103.11Z" transform="translate(-36.57 -30.95)"/><path class="cls-1" d="M125,109c-3.14-3.73-8.54-5.63-16-5.63-5.86,0-10-1.39-12.42-4.14-3.15-3.64-2.68-8.56.33-12.07s7.47-4.73,11.87-4.73c12.37,0,14.79,6.85,14.91,7.19a2.09,2.09,0,0,0,4-1.22c-.11-.4-2.94-9.25-16.75-10.09,0,0,0,0,0,0l.15-8a3.63,3.63,0,0,0-1.56-3.09.87.87,0,0,0-.63-.23,1.44,1.44,0,0,0-2,1.39l-.19,9.91a0,0,0,0,1,0,0c-.46-.23-6.87,1.81-7.45,2.09A16.28,16.28,0,0,0,90.88,89a13,13,0,0,0,1.53,11.72c3.06,4.58,8.66,6.91,16.59,6.91,6.07,0,10.5,1.41,12.78,4.08a8,8,0,0,1,1.84,6,.59.59,0,0,1,0,.13c-.87,7.3-8,10.7-14.6,10.7-13.19,0-14.65-6.25-14.7-6.48a2.09,2.09,0,0,0-4.13.69c.07.39,1.71,9.08,16.5,9.91,0,0,0,0,0,0v9.1a2.17,2.17,0,0,0,1.59,2.15,2.09,2.09,0,0,0,2.6-2V132.7s0,0,0,0c12.15-.83,16.35-9.56,16.87-14.32A12.35,12.35,0,0,0,125,109Z" transform="translate(-36.57 -30.95)"/><path class="cls-1" d="M108.25,144.06a2.3,2.3,0,0,1-1.67-2.27v-9a0,0,0,0,0,0,0c-14.8-.88-16.43-9.63-16.5-10a2.25,2.25,0,0,1,.38-1.65,2.21,2.21,0,0,1,4,.92c.06.26,1.52,6.39,14.59,6.39,6.37,0,13.62-3.31,14.5-10.6,0,0,0-.09,0-.14a7.85,7.85,0,0,0-1.81-5.94c-2.27-2.65-6.66-4.05-12.7-4.05-7.2,0-12.49-1.91-15.72-5.68a13.25,13.25,0,0,1-.6-16.51,18.11,18.11,0,0,1,6.52-5.19c.37-.18,6.22-2.12,7.39-2.12h0c0-.45,0-2.21.17-9.12A2.25,2.25,0,0,1,109,66.9h0a2.19,2.19,0,0,1,2.16,2.24L111,78.22s0,0,0,0c13.81.89,16.63,9.78,16.75,10.16a2.19,2.19,0,0,1-.17,1.68,2.21,2.21,0,0,1-4-.39c-.09-.29-2.5-7.12-14.8-7.12-5,0-9.19,1.67-11.79,4.7-3.17,3.69-3.3,8.48-.33,11.92,2.36,2.72,6.51,4.11,12.34,4.11,7.53,0,13,1.9,16.11,5.66a12.32,12.32,0,0,1,2.76,9.39c-.5,4.61-4.66,13.53-16.86,14.42a0,0,0,0,0,0,0v9.12A2.21,2.21,0,0,1,108.25,144.06Zm-16-23.63-.32,0a2,2,0,0,0-1.63,2.29c.06.37,1.67,9,16.41,9.83h.11v9.23a2.07,2.07,0,0,0,1.5,2,2,2,0,0,0,2.47-1.93v-9.35h.1c5.28-.36,9.69-2.31,12.74-5.65a15.75,15.75,0,0,0,4-8.59,12.17,12.17,0,0,0-2.71-9.22h0c-3.13-3.71-8.49-5.59-16-5.59-5.89,0-10.1-1.4-12.51-4.18-3-3.52-2.91-8.42.34-12.21,2.64-3.08,6.88-4.77,12-4.77,12.46,0,14.91,7,15,7.27a2,2,0,0,0,3.8-1.16c-.11-.38-2.91-9.18-16.68-10h-.1v-.11l.17-9.2a1.91,1.91,0,0,0-.55-1.41,1.94,1.94,0,0,0-1.39-.61h0a2,2,0,0,0-2,1.94s-.17,9.27-.17,9.3h-.22s0,.06,0,.06h-.08a51.58,51.58,0,0,0-7.27,2.11,17.91,17.91,0,0,0-6.45,5.13,13,13,0,0,0,.59,16.23c3.19,3.73,8.42,5.62,15.56,5.62,6.11,0,10.56,1.42,12.87,4.12a8.11,8.11,0,0,1,1.86,6.12s0,.09,0,.12c-.88,7.42-8.25,10.8-14.71,10.8-13.24,0-14.75-6.3-14.8-6.57A2,2,0,0,0,92.23,120.43Zm14.39-42.07Z" transform="translate(-36.57 -30.95)"/></g></svg>