<svg id="Layer_1" data-name="Layer 1" xmlns="http://www.w3.org/2000/svg" viewBox="0 0 149.34 136.65"><defs><style>.cls-1{fill:#f68e6d;}</style></defs><title>SC_icon_range_health</title><path id="heart" class="cls-1" d="M183,72.28A44.58,44.58,0,0,0,135.19,34.9C124.64,35.79,114,41,108.88,50.33c-4.69-9.74-16.17-14.44-26.95-15.19a45.54,45.54,0,0,0-23,4.07C45.77,45.62,37.35,59.44,34.64,73.78c-.33,1.78.22,4.44,2,4.11,1.24-.23,1.59-1.81,1.72-3.07a40.72,40.72,0,0,1,43.3-36.3c10.82.75,21.92,6.79,25.65,17a2.37,2.37,0,0,0,.78,1.27c1.17.76,2.37-.89,2.9-2.17,4.32-10.51,16.4-16.19,27.77-16.16a41.47,41.47,0,0,1,40.79,48.18H111.69a7.77,7.77,0,0,0-3.25.47,7.77,7.77,0,0,0-2.82,2.79l-9.44,13.34-19-34.4c-.43-.78-1-1.66-1.89-1.75S73.53,68,73,68.91L64.14,84a4.54,4.54,0,0,1-1.34,1.63,4.51,4.51,0,0,1-2.55.42q-10.8-.32-21.59-.32a5.3,5.3,0,0,0-3,.59c-2.68,1.77-.67,5.92,0,8.22a96.49,96.49,0,0,0,4.54,12.88,79.33,79.33,0,0,0,6.22,11.33C58.67,137.36,79.38,155,108,171.17l.25.1a1.07,1.07,0,0,0,.19.07,1.84,1.84,0,0,0,.47.06,1.82,1.82,0,0,0,.46-.06,1.07,1.07,0,0,0,.19-.07c.09,0,.17-.06.26-.11,28.65-16.16,49.37-33.8,61.58-52.43a83.57,83.57,0,0,0,7.6-14.4c.52-1.26,2.37-3.87.9-4.87-2.14-1.45-3.83,2.09-4.41,3.49C169.72,117,160,129.18,148.68,139.4S124.62,158,111.7,166a5.27,5.27,0,0,1-3,1.09,5.18,5.18,0,0,1-2.31-1c-14.88-9.34-29.69-19.07-42.13-31.47a105,105,0,0,1-16.93-21.76,80.66,80.66,0,0,1-5.9-12.55c-.79-2.17-1.49-4.37-2.07-6.61a11.65,11.65,0,0,1-.76-3.24c.11-1.43,1.43-.89,2.85-.88l19.53.07a7.59,7.59,0,0,0,3.45-.52,7.69,7.69,0,0,0,2.9-3.27L75.1,72.67l19,34.5a2.66,2.66,0,0,0,1.29,1.39c1.08.37,2.07-.69,2.72-1.63l9.11-13.07a9.26,9.26,0,0,1,2.17-2.45c1.56-1.1,3.61-1.14,5.53-1.13l65.35,0a2.72,2.72,0,0,0,1.82-.44,2.59,2.59,0,0,0,.7-1.55A44.46,44.46,0,0,0,183,72.28Z" transform="translate(-34.33 -34.76)"/></svg>