<svg id="Layer_1" data-name="Layer 1" xmlns="http://www.w3.org/2000/svg" viewBox="0 0 154.56 172.23"><defs><style>.cls-1{fill:#efd76f;}</style></defs><title>SC_icon_range_education</title><g id="lightbulb"><path class="cls-1" d="M127.62,155.35h-9.53a2.1,2.1,0,0,1-2.1-2.09V100.94H102.41v52.32a2.1,2.1,0,0,1-2.1,2.09H90.71a2.1,2.1,0,0,1-2-2.12,2.34,2.34,0,0,1,.08-.54c.1-1.9-.45-13.36-.66-14.71a24.8,24.8,0,0,0-6.44-13.74C73.22,115.46,68,107.19,68,93.09,68,73.2,78.78,50,109.19,50S150.4,73.2,150.4,93.09c0,9.48-1.88,16.64-5.92,22.54a60.56,60.56,0,0,1-5.83,7c-3.26,3.52-6.33,6.85-7.87,11.12s-1.38,9.58-1.19,14.57c.06,1.65.13,3.35.13,5A2.1,2.1,0,0,1,127.62,155.35Zm-36.85-4.19a2.1,2.1,0,0,0-1.25.41,2.08,2.08,0,0,1,1.25-.41h0Zm29.41,0h5.31c0-.89,0-1.79-.09-2.73-.21-5.39-.42-11,1.44-16.15s5.34-8.87,8.74-12.54a57.5,57.5,0,0,0,5.44-6.48c3.54-5.17,5.19-11.58,5.19-20.17,0-6.5-1.79-38.93-37-38.93s-37,32.43-37,38.93c0,12.69,4.78,20.22,12.5,28.25a28.83,28.83,0,0,1,7.55,16c.16,1,.41,5.7.53,8.43.11,2.45.18,4.17.19,5.39h5.26V100.94H91.13c-3.59,0-10.38-2.22-10.38-10.6S88.12,79.73,92,79.73h0c4.33,0,9.17,2.17,10.22,7a30.26,30.26,0,0,1,.26,7.8c0,.76-.07,1.48-.09,2.18H116V91.23a11.82,11.82,0,0,1,3-8,10.39,10.39,0,0,1,8-2.85c3.57.09,6.28,1.2,8.06,3.3a9.77,9.77,0,0,1,2.05,7,11.57,11.57,0,0,1-2.89,7.56,9.42,9.42,0,0,1-7,2.71h-7Zm0-54.41h7a5.35,5.35,0,0,0,4-1.43,7.4,7.4,0,0,0,1.71-4.71,2,2,0,0,1,0-.35,5.54,5.54,0,0,0-1.1-3.87c-1-1.14-2.64-1.74-4.94-1.8A6.45,6.45,0,0,0,122,86.2a7.65,7.65,0,0,0-1.82,5ZM92,83.92h0c-.71,0-7.08.24-7.08,6.42,0,2.71,1,4.54,3,5.58a8.25,8.25,0,0,0,3.19.83h7.09c0-.8.07-1.6.11-2.39a27.35,27.35,0,0,0-.18-6.71C97.59,85.09,94.59,83.92,92,83.92Z" transform="translate(-31.72 -16.96)"/><path class="cls-1" d="M70.09,55.55a2.12,2.12,0,0,1-1.48-.61L56.12,42.5a2.1,2.1,0,1,1,3-3L71.57,52a2.11,2.11,0,0,1-1.48,3.59Z" transform="translate(-31.72 -16.96)"/><path class="cls-1" d="M109.19,40.55a2.1,2.1,0,0,1-2.09-2.1V19.06a2.1,2.1,0,1,1,4.19,0V38.45A2.1,2.1,0,0,1,109.19,40.55Z" transform="translate(-31.72 -16.96)"/><path class="cls-1" d="M148.3,57a2.1,2.1,0,0,1-1.46-3.6l14.3-13.9a2.09,2.09,0,1,1,2.92,3l-14.3,13.91A2.09,2.09,0,0,1,148.3,57Z" transform="translate(-31.72 -16.96)"/><path class="cls-1" d="M55.77,94.69h-22a2.1,2.1,0,1,1,0-4.19h22a2.1,2.1,0,0,1,0,4.19Z" transform="translate(-31.72 -16.96)"/><path class="cls-1" d="M184.18,94.69H162.6a2.1,2.1,0,1,1,0-4.19h21.58a2.1,2.1,0,1,1,0,4.19Z" transform="translate(-31.72 -16.96)"/><path class="cls-1" d="M162.4,146.47a2.07,2.07,0,0,1-1.48-.61l-14.1-14.1a2.1,2.1,0,0,1,3-3l14.09,14.1a2.09,2.09,0,0,1-1.48,3.57Z" transform="translate(-31.72 -16.96)"/><path class="cls-1" d="M55.77,148.47a2.07,2.07,0,0,1-1.48-.61,2.1,2.1,0,0,1,0-3L70.38,128.8a2.1,2.1,0,0,1,3,3l-16.1,16.1A2.09,2.09,0,0,1,55.77,148.47Z" transform="translate(-31.72 -16.96)"/><path class="cls-1" d="M126,166.8H92.13a2.1,2.1,0,0,1,0-4.19H126a2.1,2.1,0,0,1,0,4.19Z" transform="translate(-31.72 -16.96)"/><path class="cls-1" d="M126,178H92.13a2.1,2.1,0,0,1,0-4.2H126a2.1,2.1,0,0,1,0,4.2Z" transform="translate(-31.72 -16.96)"/><path class="cls-1" d="M120.32,189.2h-22a2.1,2.1,0,0,1,0-4.2h22a2.1,2.1,0,1,1,0,4.2Z" transform="translate(-31.72 -16.96)"/></g></svg>