<svg id="Layer_1" data-name="Layer 1" xmlns="http://www.w3.org/2000/svg" viewBox="0 0 117.42 162.59"><defs><style>.cls-1{fill:#098c93;}</style></defs><title>SC_icon_range_ministry</title><path class="cls-1" d="M165.79,58.49H126.1a.67.67,0,0,1-.66-.66V23.71a1.92,1.92,0,0,0-1.92-1.92h-29a1.92,1.92,0,0,0-1.92,1.92V57.83a.67.67,0,0,1-.66.66H52.21a1.92,1.92,0,0,0-1.92,1.92v29a1.92,1.92,0,0,0,1.92,1.92H91.9a.67.67,0,0,1,.66.66v49.2c0,1.32-.23,3.39,1.09,4.22a2.55,2.55,0,0,0,1,.32,1.77,1.77,0,0,0,.76,0c1.52-.45,1.51-2.42,1.51-3.66V99.73c0-1.94,0-3.88,0-5.82,0-1.17,0-2.3.06-3.48a3.59,3.59,0,0,0-.62-2.53,3.35,3.35,0,0,0-2.55-1c-5.09-.08-10.22.07-15.31.07H55.32a.67.67,0,0,1-.67-.66V63.52a.67.67,0,0,1,.67-.66H93.91c.74,0,2.44,0,3-1.6A5.68,5.68,0,0,0,97,59.17c0-.22,0-.43,0-.64,0-.83,0-1.67,0-2.5V26.82a.67.67,0,0,1,.66-.67h22.82a.67.67,0,0,1,.66.67V45.4q0,6.16,0,12.32c0,.52,0,1,0,1.56s0,.86,0,1.3a2.18,2.18,0,0,0,1.07,2.09,2.5,2.5,0,0,0,1.15.19h39.56a.59.59,0,0,1,.59.57V86.34a.66.66,0,0,1-.66.66H142.07q-3.24,0-6.48,0c-3.51,0-7.14-.08-10.7,0A4,4,0,0,0,122,88a4.26,4.26,0,0,0-1,2.39,38.29,38.29,0,0,0-.08,6.86c0,1.13.1,2.3.1,3.41v75.09c0,.42,0,.84,0,1.27,0,1,0,2,0,3,0,.82,0,1.64,0,2.45a2,2,0,0,0,.56,1.37,1.92,1.92,0,0,0,1.36.56h.58a1.92,1.92,0,0,0,1.92-1.92V92a.67.67,0,0,1,.66-.66h39.69a1.92,1.92,0,0,0,1.92-1.92v-29A1.92,1.92,0,0,0,165.79,58.49Z" transform="translate(-50.29 -21.79)"/></svg>